# xmcd
#
# Track frame offsets: 
#        150
#        11360
#        21565
#        33200
#        43292
#        53221
#        62699
#        74221
#        86583
#        96797
#        108575
#        119186
#        130515
#        142037
#        152476
#        161071
#        172412
#        184391
#        194662
#        205176
#        216190
#        228357
#        238930
#        248624
#        260510
#
# Disc length: 3590 seconds
#
# Revision: 4
# Processed by: cddbd v1.5.2PL0 Copyright (c) Steve Scherf et al.
# Submitted via: ExactAudioCopyFreeDBPlugin 1.0
#
DISCID=810e0419
DTITLE=Various Artist - Various - Northern Soul. The Early Years. Vol
DTITLE=ume Two. 100 Classic and Rare Tracks
DYEAR=2018
DGENRE=Soul
TTITLE0=The Egyptians - The Party Stomp
TTITLE1=Harold Burrage - She Knocks Me Out
TTITLE2=Willie Cobbs - You Don't Love
TTITLE3=Elmore Morris - Before I Turned My Back On You
TTITLE4=Jackie Brenston - You Ain't The One
TTITLE5=Billy Gayles - I'm Hurting
TTITLE6=Charlie Baker - You Crack Me Up
TTITLE7=Ernie K-Doe - A Certain Girl
TTITLE8=Willie Jones - Where's My Money?
TTITLE9=Juanita Nixon - Stop Knockin'
TTITLE10=Willie J. Charles - Feelin' Kind A Lonesome
TTITLE11=Sam Myers - You Don't Have To
TTITLE12=Etta James - Street Of Tears
TTITLE13=Earl 'Connelly' King - Every Whicha Kinda Way
TTITLE14=Linda Carr - Happy Teenager
TTITLE15=The Mar-Keys - Sack O' Woe
TTITLE16=Justin Jones - Dance By Yourself
TTITLE17=The Bobbettes - Mr. Johnny Q
TTITLE18=Faye Adams - The Hammer
TTITLE19=The Upsetters  - Jaywalking
TTITLE20=Joe Tex - Pneumonia
TTITLE21=Marie Knight - Come On Baby (Hold My Hand)
TTITLE22=Freddie Gorman - Just For You
TTITLE23=The Vibrations - The Watusi
TTITLE24=Maximilian - The Snake
EXTD=
EXTT0=
EXTT1=
EXTT2=
EXTT3=
EXTT4=
EXTT5=
EXTT6=
EXTT7=
EXTT8=
EXTT9=
EXTT10=
EXTT11=track is missing (silence instead)
EXTT12=
EXTT13=
EXTT14=
EXTT15=
EXTT16=
EXTT17=
EXTT18=
EXTT19=
EXTT20=
EXTT21=
EXTT22=
EXTT23=
EXTT24=
PLAYORDER=
